Coordinates
version=1
nRows=19
nColumns=36
inDegrees=yes

Units are S.I. units (second, meters, Newtons, ...)
If the header above contains a line with 'inDegrees', this indicates whether rotational values are in degrees (yes) or radians (no).

endheader
time	pelvis_tilt	pelvis_list	pelvis_rotation	pelvis_tx	pelvis_ty	pelvis_tz	hip_flexion_r	hip_adduction_r	hip_rotation_r	knee_angle_r	knee_angle_r_beta	ankle_angle_r	subtalar_angle_r	mtp_angle_r	hip_flexion_l	hip_adduction_l	hip_rotation_l	knee_angle_l	knee_angle_l_beta	ankle_angle_l	subtalar_angle_l	mtp_angle_l	lumbar_extension	lumbar_bending	lumbar_rotation	arm_flex_r	arm_add_r	arm_rot_r	elbow_flex_r	pro_sup_r	arm_flex_l	arm_add_l	arm_rot_l	elbow_flex_l	pro_sup_l
      3.30000000	    -17.12329764	     -2.49771585	     -0.81076051	     -0.39184329	      0.60438328	     -0.60414334	     91.67019056	     -4.50540291	     -1.09999107	     93.23830466	      1.62731541	     20.55077285	     -5.29577772	     -7.49997721	     92.89543177	     -4.93623960	      2.88328905	     93.38327785	      1.62984566	     20.27982237	    -11.91795739	     -7.49997721	    -28.40240190	      3.78311827	      0.63756865	     84.05410691	    -18.50267060	     12.41096952	     73.76776039	     89.86855581	     95.85101782	    -18.36746445	     20.30050844	     62.96800575	     80.54181847
      3.31000000	    -17.54733507	     -2.51807558	     -1.05513167	     -0.38687544	      0.61147552	     -0.60377398	     90.78294697	     -4.10141947	     -1.15960611	     92.15005673	      1.60832190	     20.48885831	     -5.79136632	     -7.49997758	     92.03654663	     -5.08468592	      2.91188305	     92.49136985	      1.61427893	     20.42450639	    -12.48010323	     -7.49997758	    -27.89110614	      3.84766465	      0.78241572	     82.99517628	    -18.12107835	     11.65925312	     74.55335673	     90.07930781	     94.39211622	    -18.81190073	     19.16892768	     64.90248945	     80.85758755
      3.32000000	    -17.87645682	     -2.49117134	     -0.97997176	     -0.38207209	      0.61927861	     -0.60446138	     89.74000993	     -4.24460724	     -1.24586628	     91.01984271	      1.58859594	     20.38412730	     -5.80526848	     -7.49997811	     90.94673635	     -4.70662794	      3.00632015	     91.34327948	      1.59424098	     20.33686234	    -12.85873962	     -7.49997811	    -27.33092228	      4.05958470	      0.63640454	     81.92831890	    -17.83491611	     11.38577950	     74.80246017	     90.34774592	     92.85940279	    -19.14779686	     18.17459928	     66.09309319	     81.17222504
      3.33000000	    -18.10173801	     -2.46162131	     -0.78457253	     -0.37728553	      0.62779192	     -0.60543458	     88.49994815	     -4.59016628	     -1.37790716	     89.79457683	      1.56721102	     20.47630504	     -5.50140290	     -7.49997858	     89.66271029	     -4.23847122	      3.08171330	     90.03325370	      1.57137671	     20.31632908	    -13.14728901	     -7.49997858	    -26.81721708	      4.29881564	      0.40126188	     80.74659803	    -17.74043989	     11.30615855	     75.05255711	     90.58782627	     91.27828591	    -19.62622431	     17.74596785	     67.16623210	     81.47735269
      3.34000000	    -18.30230305	     -2.37895627	     -0.77132577	     -0.37252613	      0.63653436	     -0.60560942	     87.23944245	     -4.70106774	     -1.50135912	     88.48658598	      1.54438227	     20.38644680	     -5.34528395	     -7.49997864	     88.36957245	     -4.19540365	      2.96753340	     88.74047287	      1.54881343	     20.24362578	    -13.01773397	     -7.49997864	    -26.14424936	      4.31262588	      0.38095319	     79.37320982	    -17.90297930	     11.46352413	     74.91668489	     90.60852103	     89.83785297	    -19.98894549	     17.92360289	     67.17806420	     81.50536101
      3.35000000	    -18.53545203	     -2.35082269	     -0.84757975	     -0.36761082	      0.64586575	     -0.60520538	     85.86982655	     -4.62176950	     -1.65641695	     86.97808315	      1.51805393	     20.58466787	     -4.88492076	     -7.49997934	     87.01218609	     -4.36454877	      2.84187993	     87.26560515	      1.52307213	     20.38007812	    -12.83716050	     -7.49997934	    -25.58372827	      4.38545874	      0.12703801	     77.91965242	    -17.43458146	     11.14365658	     75.23124680	     90.91259001	     87.74546845	    -21.02802626	     17.34013452	     69.12232251	     81.90520257
      3.36000000	    -18.71458410	     -2.29702435	     -0.93657365	     -0.36274759	      0.65567851	     -0.60461522	     84.39788250	     -4.48076953	     -1.77056722	     85.33285772	      1.48933933	     20.49825199	     -4.70410928	     -7.49997947	     85.53518175	     -4.58153642	      2.63763642	     85.65919786	      1.49503504	     20.34363175	    -12.66198491	     -7.49997947	    -24.86822812	      4.25876513	      0.23828696	     76.28066753	    -17.65570864	     11.11177828	     75.18000385	     90.96321088	     86.04742477	    -21.34850805	     17.53606941	     69.34222112	     81.97358687
      3.37000000	    -18.86550317	     -2.22118236	     -0.95376773	     -0.35767570	      0.66573279	     -0.60431635	     82.87603702	     -4.56322637	     -2.00946822	     83.68340263	      1.46055091	     20.37314333	     -4.52410785	     -7.49997951	     84.02410614	     -4.76009636	      2.33983844	     84.07955942	      1.46746515	     20.24059080	    -12.46347744	     -7.49997951	    -24.01113248	      4.12129805	      0.21175018	     74.40631036	    -17.92762934	     11.18731550	     74.95811126	     90.97287422	     84.24167571	    -21.65835036	     17.75430226	     69.27551532	     81.98974433
      3.38000000	    -18.99081297	     -2.08374969	     -0.96650240	     -0.35293913	      0.67646197	     -0.60407319	     81.23325684	     -4.52578657	     -1.99891190	     81.75759473	      1.42693922	     20.26962706	     -4.24415667	     -7.49997964	     82.29757794	     -4.83640722	      2.04869672	     82.07158493	      1.43241938	     20.14815384	    -12.20904083	     -7.49997964	    -23.35285668	      3.92866380	      0.20707122	     72.76541134	    -18.03013608	     10.75381786	     74.99011818	     91.01163975	     82.41008193	    -21.82020201	     17.63651256	     69.76585629	     82.08819000
      3.39000000	    -18.86986085	     -1.83957724	     -0.98801990	     -0.34792177	      0.68761292	     -0.60370311	     79.37544586	     -4.59265454	     -1.99822774	     79.92740072	      1.39499631	     20.18482372	     -3.80183263	     -7.49997997	     80.30354569	     -5.02923388	      1.44441705	     80.13306978	      1.39858591	     20.02032056	    -11.93327616	     -7.49997997	    -22.90932437	      3.60400398	     -0.07421459	     70.90910729	    -17.57500908	      9.65821141	     75.08182797	     91.10775839	     80.30168853	    -22.09266775	     16.66210306	     70.62052997	     82.30265383
      3.40000000	    -18.86755405	     -1.69311754	     -0.99570946	     -0.34309622	      0.69859457	     -0.60336664	     77.60161229	     -4.59270236	     -2.06048352	     77.93992151	      1.36030825	     19.96178165	     -3.52639818	     -7.49998013	     78.45714395	     -5.14628090	      1.06930774	     78.09951258	      1.36309364	     19.73869861	    -11.61071223	     -7.49998013	    -22.19469893	      3.40833109	     -0.23186535	     69.25246391	    -17.47519158	      9.38199489	     74.73157664	     91.13288085	     78.41291228	    -22.35054221	     16.46791184	     70.62494771	     82.37807895
      3.41000000	    -18.75920300	     -1.52404071	     -0.98503968	     -0.33819070	      0.70994273	     -0.60300621	     75.67631663	     -4.56913961	     -2.07012663	     75.86069900	      1.32401897	     19.65754639	     -3.30520249	     -7.49998028	     76.45811504	     -5.24696420	      0.61522712	     75.95914523	      1.32573718	     19.38285711	    -11.24228912	     -7.49998028	    -21.58462665	      3.19800450	     -0.40936704	     67.62368438	    -17.31907937	      8.99151182	     74.41957548	     91.15088655	     76.48427799	    -22.58594941	     16.18061707	     70.66661031	     82.44466241
      3.42000000	    -18.46826601	     -1.31242616	     -1.02261093	     -0.33309314	      0.72172252	     -0.60247172	     73.55593128	     -4.51902677	     -2.05341603	     73.74704467	      1.28712874	     19.17194877	     -3.21969700	     -7.49998060	     74.21059448	     -5.44341446	     -0.02405857	     73.76669890	      1.28747177	     18.95131679	    -10.86735735	     -7.49998060	    -21.17814186	      2.90742362	     -0.67057867	     66.00500979	    -16.83213508	      8.21918237	     74.14229788	     91.22432520	     74.37088735	    -22.75726407	     15.28269731	     71.02433377	     82.58770512
      3.43000000	    -18.50064379	     -1.21968782	     -1.06970482	     -0.32815173	      0.73287239	     -0.60191342	     71.75713835	     -4.38010150	     -2.11105211	     71.53204309	      1.24846967	     18.79966466	     -3.02618364	     -7.49998069	     72.35236206	     -5.62860875	     -0.47365284	     71.50846033	      1.24805808	     18.61143280	    -10.49910192	     -7.49998069	    -20.25879405	      2.74913184	     -0.75734371	     64.34464503	    -16.79397845	      8.13538590	     73.83527197	     91.23255974	     72.34913850	    -22.88024928	     15.21703954	     70.80342783	     82.59155528
      3.44000000	    -18.00132214	     -0.92489594	     -1.15806263	     -0.32300579	      0.74506177	     -0.60142049	     69.38530384	     -4.32053207	     -1.94412010	     69.26611885	      1.20892183	     18.01944045	     -3.05701097	     -7.49998102	     69.78474550	     -5.74111749	     -1.20634117	     69.10537998	      1.20611641	     17.98874935	    -10.06432712	     -7.49998102	    -20.05038515	      2.36959214	     -0.91794427	     62.77643563	    -16.28285015	      7.20793853	     73.68870757	     91.31968497	     70.24782029	    -22.74713653	     13.86095619	     71.12004192	     82.67585091
      3.45000000	    -17.78076854	     -0.73429769	     -1.09269898	     -0.31791306	      0.75649517	     -0.60133565	     67.27774404	     -4.37344634	     -1.91583202	     66.94528222	      1.16841559	     17.43158513	     -2.96304558	     -7.49998128	     67.59253284	     -5.67013278	     -1.71168690	     66.67075881	      1.16362426	     17.38198861	     -9.63210234	     -7.49998128	    -19.38468360	      2.18646123	     -1.10895449	     61.17741769	    -16.13181495	      6.79799619	     73.57101405	     91.40252326	     68.16835584	    -22.64563000	     13.20905789	     71.08985686	     82.70055174
      3.46000000	    -17.57523573	     -0.60874771	     -0.98421117	     -0.31272564	      0.76774046	     -0.60133664	     65.15313681	     -4.44447529	     -1.99290204	     64.56799960	      1.12692418	     16.83863149	     -2.86977250	     -7.49998154	     65.43335264	     -5.57112465	     -2.14325000	     64.20685553	      1.12062103	     16.74911024	     -9.23190702	     -7.49998154	    -18.66264488	      2.10016672	     -1.29694407	     59.55665126	    -15.98818372	      6.42811815	     73.54191460	     91.49111486	     66.06302093	    -22.48969858	     12.53304111	     71.12522992	     82.72962256
      3.47000000	    -17.33750773	     -0.56140104	     -0.87057021	     -0.30749561	      0.77885978	     -0.60135024	     62.95993138	     -4.43817329	     -2.06931448	     62.12647071	      1.08431147	     16.22154657	     -2.69843525	     -7.49998172	     63.26621896	     -5.44751656	     -2.37804959	     61.72138569	      1.07724140	     16.10300609	     -8.79944402	     -7.49998172	    -17.94152462	      2.08309184	     -1.47361920	     57.97856798	    -15.85410751	      6.09010140	     73.47315790	     91.54420757	     64.00520781	    -22.31461449	     11.98000613	     71.13635508	     82.75511956
      3.48000000	    -16.92326036	     -0.55524117	     -0.73710049	     -0.30218252	      0.79000818	     -0.60143979	     60.57829809	     -4.48970262	     -2.36293696	     59.65185457	      1.04112127	     15.47714496	     -2.67009240	     -7.49998201	     60.92287325	     -5.36062421	     -2.70632254	     59.21167657	      1.03343871	     15.32761412	     -8.48184958	     -7.49998201	    -17.46833479	      2.10860519	     -1.64548283	     56.48866948	    -15.62352331	      5.45264276	     73.50266150	     91.63736573	     61.95141049	    -21.98111153	     10.93767146	     71.40322178	     82.82735626
